PathFileType	4	(X/Y/Z)	Patient4_TMGait_0pt7_01_left_12.trc.trc
DataRate	CameraRate	NumFrames	NumMarkers	Units	OrigDataRate	OrigDataStartFrame	OrigNumFrames
88.050314465409	88.050314465409	5	33	mm	88.050314465409	71	       141
Frame#	Time	Sacral			L.Shoulder			Chest			R.Shoulder			Neck			R.ASIS			L.ASIS			R.Thigh.Superior			R.Thigh.Lateral			R.Thigh.Inferior			R.Patella			L.Thigh.Superior			L.Thigh.Lateral			L.Thigh.Inferior			L.Patella			L.Shank.Superior			L.Shank.Lateral			L.Shank.Inferior			R.Shank.Superior			R.Shank.Lateral			R.Shank.Inferior			R.Heel			R.Midfoot.Superior			R.Midfoot.Lateral			R.Toe			L.Heel			L.Midfoot.Lateral			L.Midfoot.Superior			L.Toe			L.Elbow			L.Wrist			R.Elbow			R.Wrist			
		X1	Y1	Z1	X2	Y2	Z2	X3	Y3	Z3	X4	Y4	Z4	X5	Y5	Z5	X6	Y6	Z6	X7	Y7	Z7	X8	Y8	Z8	X9	Y9	Z9	X10	Y10	Z10	X11	Y11	Z11	X12	Y12	Z12	X13	Y13	Z13	X14	Y14	Z14	X15	Y15	Z15	X16	Y16	Z16	X17	Y17	Z17	X18	Y18	Z18	X19	Y19	Z19	X20	Y20	Z20	X21	Y21	Z21	X22	Y22	Z22	X23	Y23	Z23	X24	Y24	Z24	X25	Y25	Z25	X26	Y26	Z26	X27	Y27	Z27	X28	Y28	Z28	X29	Y29	Z29	X30	Y30	Z30	X31	Y31	Z31	X32	Y32	Z32	X33	Y33	Z33	

71	14.585000000000	811.357130404664	1001.295999988488	425.025247292287	1019.038202502725	1434.361209249114	263.926652394470	1101.346946141672	1356.431987909870	433.315753909543	1001.353730199666	1432.292913731689	596.580622619569	1004.413566535252	1489.753767397554	417.600777529603	1028.893384757474	941.360864028615	562.395035098651	1037.189194329064	956.583956705237	286.058788551549	1103.356374573499	767.204693633259	540.628432371540	1057.360086391603	647.744617223255	615.681290896141	1145.648008001966	608.163264614540	536.867631203244	1177.629739786984	528.743588167938	555.085606974963	1040.266709222799	730.604100574089	317.519967266260	929.380050758811	635.704214363870	245.350163735900	983.444313643982	542.641081133044	314.328594753485	967.205712457451	476.794376677990	323.239469046802	936.879258845981	409.693456904084	312.564675466664	840.259577547764	304.068358009313	257.298950082607	874.659104873770	189.212972616622	331.174994167423	1166.282283897264	439.679766295003	569.132210609663	1117.883315354333	325.972467037220	635.361822899858	1190.579747114919	241.304179965937	586.606119491391	1106.724389309246	49.768568256900	562.334599735749	1265.421568921663	131.712536044616	603.057018333666	1189.377657684108	53.470543706209	636.402649117877	1390.425491758776	100.870722753628	632.625828778210	734.282559354652	38.973180731746	368.974953838787	808.666781432758	35.256448157507	289.246231476145	892.343913840480	95.784277174019	317.235751664236	1020.745369092275	40.894570927124	289.051857012430	1121.877034617379	1129.959386269695	105.564748092496	1369.557143178416	1139.688400192370	163.097582480942	820.472999262086	1142.576398096079	702.742163091327	751.745356255191	889.519105823751	709.534324451909	
72	14.596357142857	812.679628663174	999.277300552883	428.148370294234	1017.653704778925	1432.767653212956	265.795309475413	1101.087623720202	1355.520230055951	434.935971986370	1001.496924651169	1431.403618573946	598.381825168544	1003.560269821105	1488.305097336639	419.288466685945	1030.764747075576	939.351267471901	564.406250795694	1038.023683028468	955.329618111642	288.262025773829	1104.187755534807	763.779120627082	542.462369635868	1055.594477283204	644.161580991088	616.047173456538	1144.014930575599	604.501620475018	537.722304533879	1173.939117255288	524.599355804852	554.860951510810	1039.582485684352	728.708286001901	318.605395982696	927.271232686254	634.847811987039	246.997654172788	980.862475686720	541.129415703082	315.342746540538	964.024247842785	475.131585616116	324.207517567638	932.817155929533	408.419894417211	313.459321197655	834.724990785571	304.178522304971	258.005237433927	867.873361820067	188.661214001374	331.411501100003	1162.513428729807	435.219001913391	568.771470200075	1112.995381611542	321.569996221369	634.031184969731	1185.231120574973	236.787584642605	585.134188334439	1099.902816940084	47.041068859398	559.699250458662	1259.101015414301	126.708920425678	601.252148906264	1182.055857615760	49.891256740292	634.287822636933	1383.580472012135	94.311556988729	631.440479607698	726.285404648583	39.012994748224	368.925912318837	800.691386721725	35.242823521861	289.249866205355	884.434790791042	95.736835947393	317.205279564132	1012.794102841365	40.674455243951	288.979239633539	1124.221071453708	1130.296243498338	107.310650140430	1370.417981989199	1148.398699672325	166.711810847769	817.066252635379	1144.985075226604	704.177025249324	746.024421124361	892.324327301877	709.189706496692	
73	14.607714285714	814.067466818442	997.327560962707	431.445220837587	1016.351613540780	1431.160922064289	267.770751668152	1100.921811829643	1354.628106684380	436.669517878038	1001.702642037869	1430.497366234325	600.337204339151	1002.766524227728	1486.893287482127	421.145161695926	1032.719004101134	937.425209929840	566.584306006360	1038.913302194865	954.017353145568	290.672216679544	1105.365819831209	760.583741039792	544.474505505442	1053.998925508392	640.757453959650	616.297392810857	1142.802682321015	601.156214764141	538.698573370562	1170.564010045443	520.457576988160	554.628985357779	1039.080780416619	726.855370168431	319.839592972125	925.382433766872	634.001637078325	248.862726116893	978.646276395071	539.614598453340	316.471238942583	961.273714884154	473.377319160173	325.292884534247	929.089806396518	407.114178384693	314.465480390534	829.382784546113	304.401842395112	258.821888747979	861.200567111353	188.148135789386	331.666102739138	1158.718579057854	430.738930453308	568.293046877612	1107.652201908843	317.358154913626	632.648340494883	1178.931349720586	232.139692985932	583.522536073086	1091.015320391715	44.882415711738	557.226846768035	1251.270940023680	121.288587216810	599.165903527235	1172.851794297807	46.473553412983	632.188951126664	1375.132664657359	86.553114618317	629.690793813841	718.290868649926	39.165923814362	368.844003607624	792.740469993194	35.267700821261	289.246219035274	876.585098103877	95.707313627160	317.146887525476	1004.875372480556	40.437969729337	288.894874660284	1125.802264153778	1130.179186380010	109.183538505720	1370.419716270974	1155.735401428923	170.271888950105	814.547248107791	1146.670848057644	705.658949959525	741.816635056979	894.232322286821	709.145198670307	
74	14.619071428571	815.479239614066	995.538776860566	434.870167296711	1015.186784315883	1429.603964074042	269.842223769466	1100.871031297236	1353.797196442330	438.519005775072	1001.979866871796	1429.614411145223	602.443831065788	1002.085700834494	1485.587808319452	423.168931251852	1034.700330952373	935.676387974847	568.926295052256	1039.826698484699	952.702448761422	293.261553960039	1106.758158360386	757.660330407486	546.679457896994	1052.546568688864	637.666514855502	616.566089995550	1141.881195869419	598.181951471917	539.820897391447	1167.474043188965	516.483077989622	554.482573038380	1038.761648877941	725.118508036406	321.215474561187	923.723710035745	633.212902373627	250.940399224947	976.840381104585	538.148365638959	317.695894332327	959.024268400156	471.566045540197	326.462562309158	925.737502083655	405.817471600616	315.565648238282	824.266316386884	304.793320424102	259.748643057156	854.675330610513	187.723594690009	331.928154782758	1154.980563563471	426.447545649594	567.822244277814	1102.138233291071	313.475440615515	631.378012076758	1172.099428095193	227.600505054285	581.920091704176	1080.812544241257	43.280808839200	555.068237350699	1242.521568170745	115.826401144844	596.951156286150	1162.514169807588	43.396312428811	630.260984391919	1365.739220587996	78.264335575860	627.552702421670	710.311090433867	39.525350606362	368.724303344654	784.823383169966	35.371451931338	289.232743204126	868.829485591251	95.707288786629	317.047509244721	996.994637319218	40.187454165871	288.799665901022	1126.590488107410	1129.566801516572	111.200077488743	1369.642221334279	1161.644824989177	173.758888615094	813.018122538052	1147.545377577261	707.224010976067	739.188784562302	895.172489253641	709.434742205491	
75	14.630428571429	816.867316321242	994.011031478231	438.372867447976	1014.207140079531	1428.172408419468	271.995592796587	1100.950887903308	1353.081845589461	440.483105464977	1002.337455934674	1428.812103025626	604.691373348134	1001.570912295269	1484.467636774423	425.348769632990	1036.643095318031	934.202361850095	571.425954805139	1040.726508965883	951.458684154962	295.997711849916	1108.218310958065	755.074158730539	549.078912315970	1051.221630448068	635.032358644931	616.995928404135	1141.112738735033	595.645322167099	541.112616777509	1164.629561120963	512.857017466916	554.536556449213	1038.627296359180	723.583857226907	322.728621713554	922.325164736440	632.530098793713	253.217972755820	975.514273698156	536.790593387128	318.999413324657	957.372098038180	469.741134071669	327.675079783445	922.822380717022	404.575928891414	316.735427961274	819.431515652404	305.417994857129	260.779436120661	848.350187765207	187.448345682074	332.182886644764	1151.366483002651	422.553495195104	567.498597153009	1096.702436246776	310.066541887430	630.385062064328	1165.109979954999	223.412472119087	580.479765840884	1070.008490500845	42.204065172163	553.323414061493	1233.379045252264	110.698964320007	594.786538759718	1151.725747119137	40.810279661772	628.630606918160	1355.976903185899	70.132521815636	625.266447385080	702.368387519178	40.213340248000	368.564051001191	776.952810711339	35.611585904300	289.206792304387	861.213611251636	95.752136160859	316.891274032484	989.155239716143	39.924886668819	288.695664653878	1126.557119916854	1128.444648118926	113.382981622046	1368.160653524632	1166.080341945242	177.155825217962	812.570341102041	1147.566459286548	708.910901753377	738.222618411637	895.114850645948	710.080425596640	
